<svg width="97" height="26" viewBox="0 0 97 26" fill="none" xmlns="http://www.w3.org/2000/svg">
<path d="M83.9177 13.4013C83.9177 14.1264 84.5559 14.5616 85.4551 14.5616C86.7024 14.5616 87.7177 13.6913 87.7177 12.444V12.328H85.4261C84.4689 12.328 83.9177 12.6761 83.9177 13.4013Z" fill="#833AE0"/>
<path d="M94.3023 0H77.3331C75.8537 0 74.6644 1.18929 74.6644 2.66866V19.6379C74.6644 21.1172 75.8537 22.3065 77.3331 22.3065H81.8002C82.1773 22.3065 82.4964 22.4516 82.7574 22.7126L84.875 24.5981C85.107 24.8301 85.4551 25.0042 85.8322 25.0042C86.2093 25.0042 86.5284 24.8591 86.7894 24.5981L88.907 22.7126C89.139 22.4806 89.4871 22.3065 89.8642 22.3065H94.3313C95.8107 22.3065 96.9999 21.1172 96.9999 19.6379V2.66866C96.9709 1.18929 95.7817 0 94.3023 0ZM90.6474 16.4761H87.9497V15.4318C87.1955 16.244 86.0642 16.7371 84.6719 16.7371C82.3223 16.7371 80.959 15.3448 80.959 13.5173C80.959 11.5739 82.5544 10.3846 85.02 10.3846H87.7177V9.92045C87.7177 8.76017 87.0505 8.03499 85.7162 8.03499C84.5559 8.03499 83.7727 8.58612 82.8735 9.51435L81.3651 7.71591C82.6124 6.20754 84.1498 5.51136 86.0352 5.51136C88.7619 5.51136 90.6184 7.04874 90.6184 10.0945V16.4761H90.6474Z" fill="#833AE0"/>
<path d="M15.3738 14.9677C15.3738 19.3478 12.4441 22.5676 8.32506 22.5676C6.32356 22.5676 4.64115 21.7844 3.6549 20.4211V22.2195H0V0.174072H3.97398V9.07927C4.98923 7.94799 6.49761 7.33884 8.32506 7.33884C12.4441 7.36785 15.3738 10.5876 15.3738 14.9677ZM11.3418 14.9387C11.3418 12.4731 9.63038 10.9357 7.57087 10.9357C5.71441 10.9357 3.88696 12.212 3.88696 14.9677C3.88696 17.7524 5.74342 18.9707 7.57087 18.9707C9.65939 18.9707 11.3418 17.4043 11.3418 14.9387Z" fill="#833AE0"/>
<path d="M30.1385 13.6043V22.2485H26.5126V20.8271C25.4974 21.9004 23.96 22.5966 22.0745 22.5966C18.9127 22.5966 17.0563 20.7111 17.0563 18.2455C17.0563 15.6058 19.2028 14.0104 22.5386 14.0104H26.1935V13.3433C26.1935 11.7479 25.2943 10.7906 23.4959 10.7906C21.9295 10.7906 20.8562 11.5158 19.6379 12.7921L17.5784 10.3555C19.2898 8.32503 21.3783 7.3678 23.931 7.3678C27.6149 7.3678 30.1385 9.45631 30.1385 13.6043ZM26.1935 16.7951V16.6211H23.0608C21.7554 16.6211 21.0303 17.1142 21.0303 18.1005C21.0303 19.0867 21.8715 19.6958 23.1188 19.6958C24.8012 19.6668 26.1935 18.5066 26.1935 16.7951Z" fill="#833AE0"/>
<path d="M46.9626 13.1983V22.2195H43.0177V13.7495C43.0177 12.067 41.9444 10.9358 40.32 10.9358C38.6956 10.9358 37.5643 12.096 37.5643 13.7495V22.2486H33.5903V7.68695H37.2452V8.99228C38.2315 8.00603 39.7108 7.33887 41.5093 7.33887C44.9031 7.36787 46.9626 9.71746 46.9626 13.1983Z" fill="#833AE0"/>
<path d="M60.2189 22.2195L54.3595 14.1555V22.2195H50.3855V0.174072H54.3595V13.8655L59.5808 7.65792H64.2799L58.8266 14.0975L64.744 22.2195H60.2189Z" fill="#833AE0"/>
</svg>
